<?xml version="1.0" encoding="UTF-8"?>
<svg width="4px" height="8px" viewBox="0 0 4 8" version="1.1" xmlns="http://www.w3.org/2000/svg" xmlns:xlink="http://www.w3.org/1999/xlink">
    <!-- Generator: sketchtool 58 (101010) - https://sketch.com -->
    <title>12EFC9B1-6BD0-48BD-99C7-155DCB81DBE2</title>
    <desc>Created with sketchtool.</desc>
    <g id="Symbols" stroke="none" stroke-width="1" fill="none" fill-rule="evenodd">
        <g id="Head" transform="translate(-559.000000, -28.000000)" fill="#E30611">
            <g id="Group-5" transform="translate(495.000000, 24.000000)">
                <g id="Group-Copy" transform="translate(58.000000, 0.000000)">
                    <path d="M7.33843859,11.7150135 C7.08160503,12.0399855 6.60995846,12.0952226 6.28498649,11.838389 C5.96001452,11.5815555 5.90477742,11.1099089 6.16161099,10.784937 L8.36437052,7.99778146 L6.16801844,5.21464227 C5.91141746,4.88948663 5.966992,4.41787973 6.29214765,4.16127876 C6.61730329,3.90467779 7.08891022,3.96025232 7.34551121,4.28540796 C8.63962321,5.90215986 9.36357808,6.8195297 9.51737581,7.03751749 C9.74807242,7.36449917 10.0012792,7.61530302 10,7.99551877 C10.0012833,8.37994496 9.80954657,8.59113393 9.51720293,8.95821918 C9.32230717,9.20294268 8.59605239,10.1218741 7.33843859,11.7150135 Z" id="icon/forms/drop-down"></path>
                </g>
            </g>
        </g>
    </g>
</svg>