<?xml version="1.0" encoding="utf-8"?>
<!-- Svg Vector Icons : http://www.onlinewebfonts.com/icon -->
<!DOCTYPE svg PUBLIC "-//W3C//DTD SVG 1.1//EN" "http://www.w3.org/Graphics/SVG/1.1/DTD/svg11.dtd">
<svg version="1.1" xmlns="http://www.w3.org/2000/svg" xmlns:xlink="http://www.w3.org/1999/xlink" x="0px" y="0px" viewBox="0 0 1000 1000" enable-background="new 0 0 1000 1000" xml:space="preserve">
<metadata> Svg Vector Icons : http://www.onlinewebfonts.com/icon </metadata>
<g><g fill="#BBC1C7"><path d="M981.2,896.7c11.7,11.7,11.7,30.6,0,42.3L939,981.2c-11.7,11.7-30.6,11.7-42.3,0L600.6,685.2c-3.2-3.2-5.4-7-6.8-11.1C533.1,718.5,458.5,745,377.5,745C174.5,745,10,580.4,10,377.5C10,174.5,174.5,10,377.5,10C580.4,10,745,174.5,745,377.5c0,81-26.5,155.6-70.9,216.3c4,1.4,7.8,3.6,11.1,6.8L981.2,896.7z M377.5,132.5c-135.3,0-245,109.7-245,245s109.7,245,245,245s245-109.7,245-245S512.8,132.5,377.5,132.5z"/></g></g>
</svg>